<svg width="800" height="229" viewBox="0 0 560 160" xmlns="http://www.w3.org/2000/svg">
  <!-- Background arcs -->
  <defs>
    <linearGradient id="sky" x1="0" y1="0" x2="1" y2="1">
      <stop offset="0%" stop-color="#0a1628"/>
      <stop offset="100%" stop-color="#1a2d4a"/>
    </linearGradient>
    <linearGradient id="gold" x1="0" y1="0" x2="1" y2="0">
      <stop offset="0%" stop-color="#c9a96e"/>
      <stop offset="100%" stop-color="#e0c78a"/>
    </linearGradient>
  </defs>
  <rect width="800" height="229" rx="16" fill="url(#sky)"/>

  <!-- Stars -->
  <circle cx="40" cy="30" r="1.5" fill="#b8c5d6" opacity="0.6"/>
  <circle cx="120" cy="50" r="1" fill="#b8c5d6" opacity="0.4"/>
  <circle cx="200" cy="25" r="1.5" fill="#b8c5d6" opacity="0.5"/>
  <circle cx="340" cy="45" r="1" fill="#b8c5d6" opacity="0.6"/>
  <circle cx="450" cy="30" r="1.5" fill="#b8c5d6" opacity="0.4"/>
  <circle cx="510" cy="55" r="1" fill="#b8c5d6" opacity="0.5"/>
  <circle cx="280" cy="35" r="1.5" fill="#b8c5d6" opacity="0.7"/>

  <!-- Merkle tree -->
  <line x1="280" y1="60" x2="200" y2="100" stroke="url(#gold)" stroke-width="2" opacity="0.6"/>
  <line x1="280" y1="60" x2="360" y2="100" stroke="url(#gold)" stroke-width="2" opacity="0.6"/>
  <line x1="200" y1="100" x2="150" y2="140" stroke="url(#gold)" stroke-width="2" opacity="0.4"/>
  <line x1="200" y1="100" x2="250" y2="140" stroke="url(#gold)" stroke-width="2" opacity="0.4"/>
  <line x1="360" y1="100" x2="310" y2="140" stroke="url(#gold)" stroke-width="2" opacity="0.4"/>
  <line x1="360" y1="100" x2="410" y2="140" stroke="url(#gold)" stroke-width="2" opacity="0.4"/>

  <!-- Root node -->
  <circle cx="280" cy="58" r="12" fill="#c9a96e" opacity="0.9"/>
  <text x="280" y="63" text-anchor="middle" fill="#0a1628" font-family="monospace" font-size="9" font-weight="bold">★</text>

  <!-- Internal nodes -->
  <circle cx="200" cy="98" r="10" fill="#b8c5d6" opacity="0.7"/>
  <circle cx="360" cy="98" r="10" fill="#b8c5d6" opacity="0.7"/>

  <!-- Leaves -->
  <rect x="140" y="132" width="20" height="12" rx="3" fill="#5a8a6a" opacity="0.8"/>
  <rect x="240" y="132" width="20" height="12" rx="3" fill="#6a9a7a" opacity="0.8"/>
  <rect x="300" y="132" width="20" height="12" rx="3" fill="#7aaa8a" opacity="0.8"/>
  <rect x="400" y="132" width="20" height="12" rx="3" fill="#5a8a6a" opacity="0.8"/>

  <!-- Labels -->
  <text x="85" y="115" text-anchor="middle" fill="#8899aa" font-family="sans-serif" font-size="9">memories</text>
  <line x1="130" y1="120" x2="145" y2="132" stroke="#8899aa" stroke-width="0.5" stroke-dasharray="2,2"/>
  <text x="478" y="115" text-anchor="middle" fill="#c9a96e" font-family="sans-serif" font-size="9">constellation</text>
  <line x1="310" y1="55" x2="450" y2="105" stroke="#8899aa" stroke-width="0.5" stroke-dasharray="2,2"/>

  <!-- Title -->
  <text x="280" y="155" text-anchor="middle" fill="#c9a96e" font-family="sans-serif" font-size="10" letter-spacing="4">MNEMOSYNE</text>
</svg>
